<svg xmlns="http://www.w3.org/2000/svg" xml:space="preserve" width="800" height="800" viewBox="0 0 395 395"><path d="M208.725 200.504c1.07-1.249 1.973-2.68 2.441-4.267 1.071-3.552-.173-7.264-2-10.335-.146 4.868-.295 9.735-.441 14.602zM188.014 135.916c-1.652 1.903-3.096 4.052-3.988 6.419-1.99 5.464 1.03 10.126 5.204 13.524a31.186 31.186 0 0 0 2.368 1.736l-.355-11.764c-.146-4.856-1.067-10.24 2.877-13.956-2.45 1.028-4.337 2.003-6.106 4.041z"/><path d="M334.83 171.757a4.506 4.506 0 0 0-.302-3.422l-34.602-66.415a4.487 4.487 0 0 0-6.054-1.907l-54.439 28.36V66.989a4.49 4.49 0 0 0-4.489-4.489h-74.89a4.49 4.49 0 0 0-4.489 4.489v61.385l-54.438-28.36a4.484 4.484 0 0 0-6.053 1.907l-34.603 66.415a4.506 4.506 0 0 0-.302 3.422 4.501 4.501 0 0 0 2.209 2.633l44.361 23.11-44.361 23.11a4.501 4.501 0 0 0-2.209 2.633 4.506 4.506 0 0 0 .302 3.422l34.603 66.415a4.487 4.487 0 0 0 6.053 1.907l54.438-28.36v61.385a4.49 4.49 0 0 0 4.489 4.488h74.89a4.49 4.49 0 0 0 4.489-4.488v-61.385l54.439 28.36a4.489 4.489 0 0 0 6.054-1.907l34.602-66.415a4.506 4.506 0 0 0 .302-3.422 4.497 4.497 0 0 0-2.211-2.633L288.26 197.5l44.359-23.11a4.494 4.494 0 0 0 2.211-2.633zm-116.193 33.822c-1.66 2.451-3.762 4.568-6.089 6.388a38.654 38.654 0 0 1-3.862 2.646c-.408.245-.389.094-.396.33l-.278 9.224c-.507 16.765-1.013 33.529-1.518 50.294l-.216 7.152c-.087 2.85-.942 5.668-4.124 6.48-3.166.808-6.408-1.465-6.744-4.713-.109-1.064-.079-2.156-.111-3.225l-.381-12.624-.053-1.763c-.02-.656-1.085-1.053-1.563-1.399-2.743-2.039-5.378-4.226-7.81-6.629-5.629-5.564-10.369-12.667-10.611-20.824-.246-8.288 4.328-15.534 10.302-20.91a48.74 48.74 0 0 1 4.821-3.798c.393-.273 3.19-1.757 3.18-2.095l-.059-1.944c-.24-7.971-.48-15.942-.722-23.913l-.335-11.081-.08-2.683c-.016-.501-.293-.482-.783-.786-1.629-1.008-3.303-1.94-4.9-2.998-6.572-4.34-12.722-10.646-13.471-18.88-.775-7.772 3.369-14.621 8.293-20.239 2.452-2.799 3.877-6.474 6.797-8.854 2.311-1.882 5.59-3.523 8.654-3.374 3.148.16 5.766 2.719 5.983 5.866.235 3.39-2.476 6.479-4.903 8.505 6.704-2.288 13.109 3.134 12.905 9.932l-.683 22.604-.236 7.854c-.016.54 2.143 2.105 2.566 2.537a47.324 47.324 0 0 1 3.899 4.494c2.364 3.119 4.332 6.599 5.399 10.381-1.032-3.658 1.053 3.616 0 0 1.796 6.17.722 12.736-2.871 18.045z"/><path d="M313.002 0H82C36.785 0 0 36.784 0 81.998v230.993C0 358.211 36.785 395 82 395h231.002C358.216 395 395 358.211 395 312.991V81.998C395 36.784 358.216 0 313.002 0zM380 312.991C380 349.94 349.944 380 313.002 380H82c-36.944 0-67-30.06-67-67.009V81.998C15 45.055 45.056 15 82 15h231.002C349.944 15 380 45.055 380 81.998v230.993z"/></svg>