<?xml version="1.0" encoding="utf-8"?>
<!-- Generator: Adobe Illustrator 25.2.3, SVG Export Plug-In . SVG Version: 6.00 Build 0)  -->
<svg version="1.1" id="Layer_1" xmlns="http://www.w3.org/2000/svg" xmlns:xlink="http://www.w3.org/1999/xlink" x="0px" y="0px"
	 viewBox="0 0 2048 2048" style="enable-background:new 0 0 2048 2048;" xml:space="preserve">
<style type="text/css">
	.st0{display:none;}
	.st1{display:inline;}
	.st2{fill:#FFFFFF;}
	.st3{fill:#EC6233;}
	.st4{fill:#2C2C2C;}
	.st5{fill:#414043;}
	.st6{display:inline;fill:#00528B;}
	.st7{font-family:'HelveticaNeueLTArabic-Bold';}
	.st8{font-size:312.0609px;}
	.st9{fill:#00528B;}
	.st10{display:inline;fill-rule:evenodd;clip-rule:evenodd;fill:#FF4D0E;}
	.st11{fill-rule:evenodd;clip-rule:evenodd;fill:#FF4D0E;}
</style>
<g class="st0">
	<text transform="matrix(1 0 0 1 913.1562 1116.8633)" class="st6 st7 st8">Shefaa</text>
	<g class="st1">
		<path class="st9" d="M473.11,1308.12c-22.37,0-43.25-8.87-58.79-24.97l-252.58-261.82c-30.68-31.8-30.68-81.63,0.01-113.44
			l104.69-108.51c15.55-16.11,36.4-24.97,58.77-24.97c0.15,0,0.3,0,0.46,0c22.51,0.12,43.43,9.19,58.9,25.55l62.39,65.27
			c5,5.24,4.82,13.54-0.42,18.54l-23.02,22c-5.24,5-13.54,4.82-18.54-0.42l-62.57-65.47c-4.48-4.74-10.53-7.37-17.05-7.41
			c-6.49-0.07-12.61,2.53-17.13,7.22L203.53,948.21c-8.88,9.2-8.88,23.61,0,32.81l252.58,261.82c4.49,4.66,10.53,7.22,17,7.22
			c6.47,0,12.51-2.57,17.01-7.23l252.58-261.81c8.88-9.2,8.88-23.61,0-32.81L637.37,839.05c-4.45-4.62-10.59-7.22-17.01-7.22l0,0
			c-6.42,0-12.42,2.53-16.9,7.12l-0.5,0.5l-125.2,122.11c-5.18,5.06-13.49,4.95-18.54-0.23l-22.23-22.79
			c-5.06-5.18-4.95-13.49,0.23-18.54L562.19,798.1c15.48-15.7,36.11-24.34,58.16-24.34c0.09,0,0.17,0,0.26,0
			c22.28,0.07,43.07,8.94,58.54,24.97L784.48,907.9c30.69,31.8,30.69,81.63,0,113.44l-252.58,261.81
			C516.37,1299.25,495.49,1308.12,473.11,1308.12z"/>
	</g>
	<circle class="st10" cx="471.76" cy="751.71" r="63.36"/>
</g>
<g class="st0">
	<g class="st1">
		<path class="st9" d="M272.92,1683.83c0,12.3,2.22,22.73,6.67,31.26c4.44,8.55,10.33,15.46,17.67,20.76
			c7.35,5.3,15.89,9.22,25.63,11.78c9.74,2.57,20.07,3.84,31.01,3.84c7.18,0,14.86-0.59,23.06-1.79c8.2-1.2,15.89-3.5,23.06-6.92
			c7.18-3.41,13.15-8.11,17.94-14.09c4.78-5.97,7.18-13.58,7.18-22.81c0-9.9-3.17-17.94-9.48-24.09
			c-6.33-6.16-14.6-11.36-24.86-15.64c-10.25-4.27-21.87-7.86-34.85-10.76c-12.99-2.9-26.14-6.24-39.47-10
			c-13.67-3.41-27-7.59-39.98-12.55c-12.99-4.95-24.61-11.36-34.85-19.23c-10.25-7.85-18.54-17.59-24.85-29.21
			c-6.33-11.62-9.49-25.96-9.49-43.06c0-18.79,4.01-35.11,12.05-48.95c8.03-13.84,18.53-25.36,31.52-34.59
			c12.98-9.22,27.67-16.06,44.08-20.5c16.4-4.44,32.8-6.66,49.2-6.66c19.13,0,37.49,2.13,55.09,6.4
			c17.59,4.28,33.23,11.2,46.9,20.76c13.66,9.57,24.51,21.78,32.54,36.64c8.03,14.86,12.05,32.89,12.05,54.07h-77.91
			c-0.69-10.94-2.99-19.99-6.91-27.16c-3.93-7.18-9.15-12.81-15.64-16.92c-6.49-4.1-14.01-7-22.55-8.71
			c-8.55-1.7-17.6-2.56-27.16-2.56c-6.49,0-12.99,0.69-19.47,2.05c-6.5,1.37-12.39,3.77-17.68,7.18c-5.3,3.41-9.66,7.77-13.07,13.06
			c-3.42,5.31-5.12,11.71-5.12,19.23c0,7.17,1.36,12.99,4.1,17.43c2.73,4.44,8.11,8.46,16.14,12.04
			c8.03,3.59,19.14,7.35,33.32,11.28c14.17,3.93,32.71,8.8,55.61,14.6c4.44,1.02,10.25,2.49,17.43,4.36
			c7.18,1.88,14.77,4.44,22.81,7.69c8.03,3.25,16.06,7.43,24.09,12.56c8.03,5.12,15.38,11.45,22.04,18.96
			c6.67,7.51,12.05,16.48,16.15,26.91s6.15,22.47,6.15,36.13c0,16.75-3.25,32.29-9.74,46.64c-6.49,14.35-16.14,26.74-28.95,37.16
			c-12.81,10.43-28.71,18.63-47.67,24.61c-18.96,5.97-40.92,8.97-65.86,8.97c-20.16,0-39.71-2.57-58.68-7.69
			c-18.96-5.12-35.62-12.98-49.97-23.57c-14.35-10.58-25.88-24.09-34.59-40.49c-8.71-16.4-12.9-35.88-12.56-58.43H272.92z"/>
		<path class="st9" d="M543.01,1439.36h72.78v137.86h1.54c9.22-15.03,21.01-26.14,35.37-33.31c14.35-7.18,28.35-10.77,42.02-10.77
			c19.47,0,35.45,2.65,47.92,7.95c12.46,5.3,22.3,12.65,29.47,22.04c7.18,9.4,12.21,20.85,15.12,34.34
			c2.89,13.5,4.35,28.44,4.35,44.85v162.98h-72.78v-149.65c0-21.86-3.5-38.19-10.5-48.95c-7.01-10.77-19.05-16.15-36.13-16.15
			c-19.82,0-34.17,5.9-43.06,17.68c-8.89,11.79-13.33,31.18-13.33,58.17v138.89h-72.78V1439.36z"/>
		<path class="st9" d="M906.9,1690.49c1.02,23.25,6.99,40.23,17.93,51c10.94,10.76,26.65,16.14,47.16,16.14
			c14.68,0,27.33-3.66,37.92-11.02c10.59-7.35,17.08-15.12,19.48-23.32h64.06c-10.25,31.44-25.97,54.16-47.15,68.16
			c-21.19,14.01-46.82,21.02-76.89,21.02c-20.84,0-39.63-3.42-56.37-10.26c-16.75-6.83-30.93-16.4-42.54-28.7
			s-20.58-26.99-26.91-44.08c-6.32-17.08-9.48-35.88-9.48-56.37c0-19.82,3.25-38.27,9.74-55.36c6.49-17.08,15.72-31.86,27.68-44.33
			c11.95-12.46,26.21-22.3,42.79-29.47c16.57-7.18,34.93-10.77,55.09-10.77c22.55,0,42.2,4.36,58.95,13.07
			c16.73,8.71,30.49,20.42,41.26,35.11c10.76,14.69,18.53,31.44,23.32,50.23c4.78,18.8,6.48,38.44,5.12,58.94H906.9z
			 M1025.29,1644.37c-3.42-18.45-9.48-32.46-18.19-42.02c-8.71-9.56-21.96-14.35-39.72-14.35c-11.62,0-21.27,1.97-28.95,5.89
			c-7.69,3.93-13.85,8.8-18.46,14.6c-4.61,5.81-7.86,11.97-9.74,18.45c-1.88,6.5-2.99,12.3-3.33,17.43H1025.29z"/>
		<path class="st9" d="M1157.01,1589.02h-43.57v-48.69h43.57v-20.5c0-11.61,1.79-22.38,5.38-32.29c3.59-9.9,9.14-18.45,16.66-25.62
			c7.51-7.18,16.73-12.73,27.68-16.66c10.93-3.93,23.91-5.89,38.95-5.89c6.49,0,12.98,0.26,19.48,0.77
			c6.48,0.51,12.81,0.94,18.96,1.28v54.84c-8.89-1.02-17.77-1.53-26.65-1.53c-9.91,0-17,2.28-21.27,6.84
			c-4.28,4.56-6.4,12.25-6.4,23.06v15.71h50.23v48.69h-50.23v216.28h-72.78V1589.02z"/>
		<path class="st9" d="M1308.7,1621.82c1.03-17.08,5.3-31.26,12.81-42.54c7.51-11.28,17.08-20.33,28.71-27.16
			c11.61-6.83,24.6-11.7,38.95-14.61c14.36-2.89,29.04-4.36,44.08-4.36c13.33,0,26.82,0.95,40.49,2.82
			c13.66,1.88,26.14,5.56,37.42,11.02c11.27,5.47,20.5,13.15,27.68,23.06c7.17,9.91,10.76,22.73,10.76,38.43v137.87
			c0,11.97,0.68,23.41,2.05,34.34c1.36,10.94,3.75,19.14,7.17,24.6h-73.8c-1.37-4.1-2.49-8.28-3.33-12.56
			c-0.86-4.27-1.45-8.63-1.79-13.07c-11.62,11.97-25.29,20.42-41.01,25.37s-31.78,7.43-48.17,7.43c-12.65,0-24.44-1.63-35.37-4.87
			c-10.94-3.25-20.5-8.11-28.71-14.61c-8.19-6.48-14.6-14.68-19.22-24.6c-4.61-9.9-6.91-21.7-6.91-35.37
			c0-15.03,2.56-27.42,7.68-37.16c5.13-9.74,11.96-17.51,20.5-23.33c8.54-5.8,18.19-10.16,28.95-13.06
			c10.77-2.9,21.78-5.21,33.06-6.92c11.27-1.7,22.04-3.08,32.29-4.1s19.39-2.56,27.42-4.61c8.03-2.05,14.43-5.04,19.22-8.97
			c4.78-3.93,7.18-9.65,7.18-17.17c0-7.85-1.28-14.09-3.85-18.71c-2.57-4.61-5.98-8.2-10.25-10.76c-4.28-2.57-9.22-4.27-14.87-5.12
			c-5.64-0.86-11.7-1.29-18.19-1.29c-14.01,0-25.2,3.08-33.57,9.22c-8.38,6.16-13.25,16.4-14.6,30.75H1308.7z M1476.81,1675.63
			c-3.08,2.74-6.92,4.87-11.54,6.41c-4.61,1.53-9.57,2.81-14.86,3.84c-5.3,1.03-10.94,1.89-16.92,2.57
			c-5.98,0.69-11.7,1.53-17.17,2.57c-5.81,1.02-11.27,2.39-16.4,4.09c-5.12,1.72-9.66,4.02-13.58,6.92
			c-3.93,2.91-7.1,6.66-9.48,11.28c-2.4,4.61-3.59,10.17-3.59,16.65c0,6.84,1.19,12.39,3.59,16.66c2.38,4.28,5.64,7.69,9.74,10.25
			c4.1,2.57,8.88,4.36,14.35,5.38c5.46,1.03,11.1,1.54,16.92,1.54c14.35,0,25.44-2.39,33.31-7.18c7.86-4.78,13.66-10.5,17.43-17.17
			c3.76-6.66,6.06-13.41,6.92-20.24c0.85-6.83,1.28-12.3,1.28-16.4V1675.63z"/>
		<path class="st9" d="M1602.89,1621.82c1.03-17.08,5.3-31.26,12.81-42.54c7.51-11.28,17.08-20.33,28.71-27.16
			c11.61-6.83,24.6-11.7,38.95-14.61c14.36-2.89,29.04-4.36,44.08-4.36c13.33,0,26.82,0.95,40.49,2.82
			c13.66,1.88,26.14,5.56,37.42,11.02c11.27,5.47,20.5,13.15,27.67,23.06c7.17,9.91,10.76,22.73,10.76,38.43v137.87
			c0,11.97,0.68,23.41,2.05,34.34c1.36,10.94,3.75,19.14,7.17,24.6h-73.8c-1.38-4.1-2.49-8.28-3.33-12.56
			c-0.86-4.27-1.45-8.63-1.79-13.07c-11.62,11.97-25.29,20.42-41.01,25.37s-31.78,7.43-48.17,7.43c-12.65,0-24.44-1.63-35.37-4.87
			c-10.94-3.25-20.5-8.11-28.71-14.61c-8.19-6.48-14.6-14.68-19.22-24.6c-4.61-9.9-6.91-21.7-6.91-35.37
			c0-15.03,2.56-27.42,7.68-37.16c5.13-9.74,11.96-17.51,20.5-23.33c8.54-5.8,18.19-10.16,28.95-13.06
			c10.77-2.9,21.78-5.21,33.06-6.92c11.27-1.7,22.04-3.08,32.29-4.1c10.25-1.02,19.39-2.56,27.42-4.61
			c8.03-2.05,14.43-5.04,19.22-8.97c4.78-3.93,7.18-9.65,7.18-17.17c0-7.85-1.28-14.09-3.85-18.71c-2.57-4.61-5.98-8.2-10.25-10.76
			c-4.28-2.57-9.22-4.27-14.87-5.12c-5.64-0.86-11.7-1.29-18.19-1.29c-14.01,0-25.2,3.08-33.57,9.22
			c-8.38,6.16-13.25,16.4-14.6,30.75H1602.89z M1771,1675.63c-3.08,2.74-6.92,4.87-11.54,6.41c-4.61,1.53-9.57,2.81-14.86,3.84
			c-5.3,1.03-10.94,1.89-16.92,2.57c-5.98,0.69-11.7,1.53-17.17,2.57c-5.81,1.02-11.27,2.39-16.4,4.09
			c-5.12,1.72-9.66,4.02-13.58,6.92c-3.93,2.91-7.1,6.66-9.48,11.28c-2.4,4.61-3.59,10.17-3.59,16.65c0,6.84,1.19,12.39,3.59,16.66
			c2.38,4.28,5.64,7.69,9.74,10.25c4.1,2.57,8.88,4.36,14.35,5.38c5.46,1.03,11.1,1.54,16.92,1.54c14.35,0,25.44-2.39,33.31-7.18
			c7.86-4.78,13.66-10.5,17.43-17.17c3.76-6.66,6.06-13.41,6.92-20.24c0.85-6.83,1.28-12.3,1.28-16.4V1675.63z"/>
	</g>
	<g class="st1">
		<path class="st9" d="M1027.6,1229.43c-35.94,0-69.47-14.24-94.42-40.11L527.48,768.8c-49.28-51.08-49.28-131.11,0.01-182.2
			l168.15-174.28c24.97-25.88,58.47-40.11,94.4-40.11c0.25,0,0.49,0,0.73,0c36.16,0.19,69.76,14.77,94.61,41.03l100.2,104.84
			c8.04,8.41,7.74,21.74-0.67,29.78l-36.97,35.33c-8.41,8.04-21.74,7.74-29.78-0.67l-100.5-105.15
			c-7.19-7.61-16.92-11.84-27.39-11.89c-10.42-0.11-20.25,4.06-27.52,11.6L594.61,651.36c-14.26,14.77-14.26,37.92-0.01,52.69
			l405.69,420.52c7.22,7.48,16.91,11.6,27.3,11.6c10.4,0,20.09-4.12,27.32-11.6l405.68-420.51c14.26-14.78,14.26-37.93,0-52.7
			l-169.17-175.34c-7.15-7.41-17.01-11.6-27.31-11.6l0,0c-10.31,0-19.95,4.06-27.15,11.44l-0.8,0.8l-201.1,196.12
			c-8.33,8.12-21.66,7.95-29.78-0.37l-35.71-36.61c-8.12-8.33-7.95-21.66,0.37-29.78l200.73-195.77
			c24.86-25.22,58-39.09,93.42-39.09c0.14,0,0.27,0,0.41,0c35.79,0.11,69.18,14.35,94.03,40.11l169.17,175.34
			c49.29,51.08,49.29,131.12,0,182.21l-405.68,420.51C1097.08,1215.18,1063.54,1229.43,1027.6,1229.43z"/>
	</g>
	<circle class="st10" cx="1025.43" cy="335.75" r="101.76"/>
</g>
<g class="st0">
	<g class="st1">
		<path class="st9" d="M1574.35,1388.8c-26.34,0-50.92-10.44-69.21-29.4l-297.35-308.22c-36.12-37.44-36.12-96.1,0.01-133.54
			l123.24-127.74c18.3-18.97,42.86-29.4,69.19-29.4c0.18,0,0.36,0,0.54,0c26.51,0.14,51.13,10.82,69.34,30.07l73.44,76.84
			c5.89,6.16,5.67,15.93-0.49,21.83l-27.1,25.9c-6.16,5.89-15.93,5.67-21.82-0.49l-73.66-77.07c-5.27-5.58-12.4-8.68-20.08-8.72
			c-7.64-0.08-14.84,2.98-20.17,8.5l-123.24,127.74c-10.45,10.83-10.45,27.79-0.01,38.62l297.35,308.22
			c5.29,5.48,12.39,8.5,20.01,8.5c7.62,0,14.73-3.02,20.02-8.51l297.34-308.21c10.45-10.83,10.45-27.8,0-38.63l-123.99-128.52
			c-5.24-5.43-12.47-8.5-20.02-8.5l0,0c-7.56,0-14.62,2.97-19.9,8.38l-0.59,0.59l-147.39,143.75c-6.1,5.95-15.88,5.83-21.83-0.27
			l-26.17-26.83c-5.95-6.1-5.83-15.88,0.27-21.83l147.13-143.49c18.22-18.49,42.51-28.65,68.47-28.65c0.1,0,0.2,0,0.3,0
			c26.23,0.08,50.71,10.52,68.92,29.4l123.99,128.52c36.13,37.44,36.13,96.1,0,133.55l-297.34,308.21
			C1625.27,1378.36,1600.69,1388.8,1574.35,1388.8z"/>
	</g>
	<circle class="st10" cx="1572.77" cy="733.78" r="74.58"/>
	<g class="st1">
		<path class="st9" d="M564.37,943.58c2.74,2.72,5.92,4.88,9.47,6.41c3.65,1.58,7.62,2.37,11.82,2.37c4.08,0,7.99-0.8,11.64-2.37
			c3.55-1.54,6.74-3.7,9.47-6.41c2.73-2.72,4.9-5.89,6.45-9.43c1.59-3.66,2.41-7.64,2.41-11.81c0-4.05-0.81-7.97-2.41-11.62
			c-1.55-3.54-3.73-6.72-6.45-9.44c-2.74-2.72-5.93-4.87-9.47-6.41c-7.42-3.22-16.28-3.12-23.46,0c-3.54,1.54-6.73,3.69-9.47,6.41
			c-2.73,2.72-4.91,5.89-6.43,9.4c-1.62,3.64-2.43,7.57-2.43,11.66c0,4.21,0.81,8.2,2.42,11.82
			C559.47,937.69,561.64,940.86,564.37,943.58z"/>
		<path class="st9" d="M896.46,921.7c2.35,2.33,5.08,4.17,8.09,5.48c3.12,1.36,6.54,2.05,10.15,2.05c3.51,0,6.86-0.69,9.97-2.04
			c3.04-1.32,5.77-3.16,8.11-5.49c2.34-2.33,4.2-5.05,5.52-8.07c1.38-3.12,2.06-6.48,2.06-9.96c0-3.45-0.68-6.81-2.03-9.97
			c-1.32-3.11-3.19-5.88-5.55-8.21c-2.33-2.32-5.05-4.17-8.12-5.51c-6.35-2.74-13.88-2.66-20.1,0.02c-3.04,1.33-5.77,3.17-8.09,5.49
			c-2.36,2.35-4.23,5.12-5.57,8.23c-1.35,3.16-2.02,6.52-2.02,9.97c0,3.49,0.69,6.84,2.05,9.95
			C892.24,916.64,894.11,919.36,896.46,921.7z"/>
		<path class="st9" d="M925.27,941.03c-2.33,2.32-4.18,5.03-5.51,8.05c-1.38,3.12-2.08,6.48-2.08,9.99c0,3.61,0.7,7.02,2.07,10.13
			c1.32,3.03,3.18,5.74,5.52,8.06c2.34,2.33,5.07,4.18,8.11,5.51c3.12,1.35,6.53,2.03,10.13,2.03c3.5,0,6.84-0.68,9.97-2.03
			c3.04-1.32,5.78-3.17,8.11-5.5c2.34-2.33,4.2-5.04,5.53-8.08c1.36-3.14,2.06-6.54,2.06-10.12c0-3.47-0.7-6.83-2.06-9.95
			c-1.33-3.04-3.19-5.76-5.53-8.08c-2.34-2.33-5.08-4.17-8.11-5.49c-6.35-2.76-13.95-2.67-20.09,0
			C930.35,936.85,927.62,938.7,925.27,941.03z"/>
		<path class="st9" d="M867.63,977.26c2.35,2.33,5.07,4.18,8.11,5.5c3.12,1.35,6.53,2.03,10.12,2.03c3.5,0,6.85-0.68,9.99-2.04
			c3.04-1.32,5.76-3.17,8.09-5.49c2.34-2.33,4.19-5.04,5.53-8.08c1.36-3.12,2.05-6.53,2.05-10.12c0-3.49-0.69-6.84-2.05-9.95
			c-1.32-3.04-3.19-5.76-5.53-8.08c-2.34-2.32-5.06-4.16-8.11-5.49c-6.34-2.76-13.94-2.67-20.09,0c-3.04,1.32-5.77,3.16-8.11,5.49
			c-2.35,2.34-4.21,5.06-5.53,8.07c-1.38,3.12-2.06,6.48-2.06,9.96c0,3.59,0.69,6.99,2.06,10.13
			C863.42,972.21,865.28,974.92,867.63,977.26z"/>
		<path class="st9" d="M988.26,1003.79v98.61h-22.07c-5.4,0-9.74-0.7-12.91-2.11c-2.82-1.29-4.93-3.05-6.45-5.28
			c-1.65-2.47-2.93-5.87-3.64-9.86c-0.82-4.7-1.29-9.98-1.29-15.85v-65.51H890v79.83c0,6.69-0.82,10.45-1.41,12.33
			c-0.94,2.82-2.11,3.52-2.46,3.87c-1.41,0.94-3.52,1.64-6.22,2c-3.75,0.35-8.33,0.59-13.73,0.59c-7.75,0-13.85-0.7-17.96-2.35
			c-3.64-1.41-6.34-3.17-8.1-5.52c-1.76-2.35-2.93-5.4-3.52-9.16c-0.82-4.7-1.18-10.1-1.18-16.08v-64.92h-51.89v79.24
			c0,6.57-0.82,10.21-1.52,12.09c-0.59,1.64-1.53,2.7-2.93,3.52c-1.65,0.94-4.58,2-10.1,2.47c-5.52,0.47-12.56,0.7-20.9,0.7h-81.83
			v-30.52c0-9.86-1.06-20.08-3.29-30.41c-2.35-10.8-6.57-20.9-12.68-29.82c-6.22-9.27-14.79-16.91-25.59-22.78
			c-10.8-5.99-24.42-8.92-40.74-8.92c-13.15,0-25.24,2.23-35.92,6.81c-10.8,4.46-20.07,10.92-27.7,19.02
			c-7.52,8.1-13.38,17.73-17.49,28.53c-3.99,10.8-5.99,22.54-5.99,34.98c0,10.33,1.29,19.61,3.75,27.24c0.71,2,1.41,3.99,2.12,5.87
			H360.06l-53.54,0.08c-6.1,0-9.63-0.7-11.5-1.17c-1.88-0.59-3.17-1.29-4-2.35c-0.93-1.06-1.64-2.7-1.99-4.93
			c-0.58-3.17-0.94-7.16-0.94-12.09V878.26H236.2v212.25c0,11.39,1.52,21.13,4.69,29.11c3.29,8.22,8.11,15.03,14.09,20.19
			c5.98,5.16,13.26,8.8,21.48,10.8c7.52,1.88,15.96,2.82,24.89,2.82l58.7,0.03h387.3c11.63,0,21.48-0.35,29.47-0.94
			c8.45-0.59,15.73-1.88,21.83-3.76c6.57-2.11,12.09-5.28,16.67-9.27c1.29-1.17,2.7-2.46,3.99-3.87c3.05,3.17,6.81,5.99,11.27,8.57
			c4.81,2.7,10.68,4.93,17.37,6.69c11.04,2.82,27.12,3.05,40.97,1.88c6.1-0.59,11.74-1.64,17.02-3.4c5.63-1.88,10.8-4.7,15.38-8.34
			c1.53-1.17,2.93-2.46,4.23-3.87c3.05,3.17,6.81,5.99,11.15,8.45c4.58,2.47,9.98,4.34,15.97,5.75c5.87,1.41,12.56,2.11,19.96,2.11
			h67.5v-149.68H988.26z M614.35,1102.41h-26.41c-5.99,0-11.62-0.7-16.55-2.23c-4.7-1.53-8.57-3.64-11.86-6.57
			c-3.28-2.82-5.75-6.34-7.63-10.8c-1.99-4.58-2.93-10.21-2.93-16.79c0-5.17,0.82-10.1,2.35-14.67c1.65-4.34,3.88-8.22,6.69-11.51
			c2.82-3.29,6.1-5.75,9.98-7.63c3.87-1.88,7.98-2.82,12.68-2.82c7.52,0,13.38,1.17,17.49,3.52c4.23,2.35,7.4,5.4,9.74,9.04
			c2.46,3.99,4.11,8.69,4.93,13.74c1.06,5.75,1.53,11.62,1.53,17.37V1102.41z"/>
		<path class="st9" d="M156.8,1104.75l-0.01-0.01c-3.4-1.32-6.19-3.09-8.27-5.25c-2.09-2.16-3.6-4.69-4.62-7.74
			c-1.12-3.35-1.7-7.02-1.7-10.92c0-2.84,0.45-5.58,1.34-8.35c0.83-2.53,2.11-4.77,3.93-6.84c1.78-2.02,4.05-3.63,6.95-4.91
			c5.81-2.58,15.92-2.3,24.08-0.85c3.9,0.69,7.58,1.78,10.94,3.24l13.14,5.72v-51.26l-6.26-2.22c-2.84-1-7.09-1.82-13.37-2.56
			c-11.69-1.36-29.49-2.25-44.85,3.11c-8.01,2.8-15.25,7.11-21.51,12.81s-11.37,12.88-15.2,21.36c-3.83,8.51-5.78,18.48-5.78,29.61
			c0,8.24,1.24,15.92,3.68,22.83c0.52,1.46,1.09,2.9,1.72,4.33H80v46.61h136.29v-46.61h-46.14
			C164.86,1106.86,160.38,1106.15,156.8,1104.75z"/>
	</g>
</g>
<g class="st0">
	<g class="st1">
		<path class="st9" d="M1024,1251.68c-40.06,0-77.44-15.88-105.26-44.71L466.47,738.17c-54.94-56.94-54.93-146.16,0.01-203.11
			l187.45-194.29c27.84-28.85,65.18-44.71,105.24-44.71c0.27,0,0.54,0,0.82,0c40.31,0.22,77.76,16.46,105.47,45.74l111.71,116.87
			c8.96,9.37,8.62,24.24-0.75,33.2l-41.21,39.39c-9.37,8.96-24.24,8.62-33.2-0.75L789.96,413.29c-8.01-8.49-18.86-13.2-30.53-13.26
			c-11.62-0.12-22.57,4.53-30.67,12.93L541.31,607.25c-15.89,16.47-15.9,42.27-0.01,58.74l452.26,468.79
			c8.04,8.34,18.85,12.93,30.43,12.93c11.59,0,22.4-4.59,30.45-12.94L1506.7,666c15.89-16.47,15.89-42.28,0-58.75l-188.59-195.47
			c-7.97-8.26-18.96-12.93-30.45-12.93l0,0c-11.49,0-22.24,4.52-30.27,12.75l-0.9,0.9l-224.18,218.63
			c-9.28,9.05-24.15,8.87-33.2-0.42l-39.8-40.81c-9.05-9.28-8.87-24.15,0.42-33.2l223.78-218.24
			c27.71-28.12,64.65-43.58,104.15-43.58c0.15,0,0.3,0,0.46,0c39.9,0.12,77.12,16,104.82,44.71l188.59,195.47
			c54.95,56.95,54.95,146.17,0,203.12l-452.25,468.78C1101.45,1235.8,1064.06,1251.68,1024,1251.68z"/>
	</g>
	<circle class="st10" cx="1024" cy="255.41" r="113.44"/>
	<g class="st1">
		<path class="st9" d="M1030.67,1579.72c4.26,4.22,9.2,7.58,14.72,9.97c5.67,2.45,11.85,3.69,18.38,3.69
			c6.35,0,12.42-1.24,18.09-3.69c5.53-2.4,10.48-5.76,14.72-9.97c4.24-4.22,7.61-9.15,10.03-14.66c2.48-5.69,3.74-11.87,3.74-18.36
			c0-6.3-1.27-12.39-3.74-18.06c-2.41-5.51-5.79-10.44-10.03-14.67c-4.26-4.22-9.21-7.57-14.72-9.96c-11.53-5.01-25.31-4.85-36.47,0
			c-5.51,2.39-10.46,5.74-14.72,9.96c-4.24,4.22-7.63,9.16-10,14.61c-2.51,5.66-3.78,11.76-3.78,18.13c0,6.55,1.27,12.74,3.76,18.38
			C1023.06,1570.57,1026.43,1575.49,1030.67,1579.72z"/>
		<path class="st9" d="M1546.95,1545.71c3.65,3.62,7.9,6.49,12.58,8.52c4.86,2.11,10.17,3.18,15.77,3.18
			c5.45,0,10.67-1.07,15.5-3.17c4.72-2.05,8.96-4.92,12.61-8.54c3.64-3.62,6.54-7.85,8.58-12.55c2.14-4.86,3.21-10.07,3.21-15.49
			c0-5.37-1.05-10.58-3.16-15.51c-2.06-4.84-4.96-9.14-8.63-12.76c-3.62-3.61-7.85-6.48-12.62-8.57
			c-9.88-4.25-21.57-4.14-31.26,0.02c-4.73,2.06-8.96,4.93-12.58,8.53c-3.68,3.66-6.58,7.96-8.65,12.79
			c-2.09,4.92-3.15,10.13-3.15,15.5c0,5.42,1.07,10.63,3.19,15.47C1540.4,1537.85,1543.3,1542.07,1546.95,1545.71z"/>
		<path class="st9" d="M1591.74,1575.76c-3.62,3.61-6.5,7.82-8.56,12.51c-2.15,4.86-3.23,10.08-3.23,15.53
			c0,5.61,1.08,10.92,3.22,15.74c2.06,4.7,4.95,8.92,8.58,12.53c3.64,3.63,7.88,6.5,12.61,8.56c4.86,2.1,10.15,3.16,15.74,3.16
			c5.44,0,10.64-1.06,15.5-3.16c4.73-2.05,8.98-4.93,12.61-8.54c3.64-3.62,6.52-7.84,8.6-12.56c2.12-4.88,3.21-10.17,3.21-15.73
			c0-5.4-1.09-10.61-3.21-15.47c-2.06-4.72-4.96-8.95-8.6-12.57c-3.64-3.62-7.89-6.49-12.61-8.54c-9.87-4.29-21.68-4.15-31.24,0
			C1599.64,1569.27,1595.4,1572.14,1591.74,1575.76z"/>
		<path class="st9" d="M1502.13,1632.08c3.65,3.62,7.88,6.5,12.61,8.54c4.85,2.1,10.15,3.16,15.74,3.16
			c5.44,0,10.64-1.06,15.53-3.18c4.73-2.05,8.96-4.93,12.58-8.53c3.64-3.62,6.52-7.84,8.6-12.56c2.13-4.86,3.19-10.15,3.19-15.73
			c0-5.42-1.06-10.63-3.19-15.47c-2.06-4.72-4.96-8.95-8.6-12.57c-3.63-3.6-7.86-6.47-12.61-8.54c-9.87-4.29-21.68-4.15-31.24,0
			c-4.72,2.05-8.97,4.92-12.61,8.54c-3.65,3.64-6.55,7.86-8.6,12.55c-2.14,4.86-3.21,10.07-3.21,15.49c0,5.58,1.07,10.87,3.21,15.74
			C1495.58,1624.23,1498.48,1628.45,1502.13,1632.08z"/>
		<path class="st9" d="M1689.67,1673.33v153.31h-34.31c-8.39,0-15.15-1.09-20.08-3.29c-4.38-2.01-7.66-4.75-10.03-8.21
			c-2.56-3.83-4.56-9.13-5.66-15.33c-1.28-7.3-2.01-15.51-2.01-24.64v-101.84h-80.67v124.11c0,10.4-1.28,16.24-2.19,19.16
			c-1.46,4.38-3.28,5.48-3.83,6.02c-2.19,1.46-5.48,2.55-9.67,3.1c-5.84,0.55-12.96,0.91-21.35,0.91c-12.04,0-21.53-1.09-27.92-3.65
			c-5.66-2.19-9.86-4.93-12.59-8.58c-2.74-3.65-4.56-8.4-5.48-14.24c-1.28-7.3-1.83-15.7-1.83-25v-100.93h-80.67v123.19
			c0,10.22-1.27,15.88-2.37,18.8c-0.91,2.56-2.38,4.2-4.56,5.47c-2.56,1.46-7.12,3.1-15.7,3.83s-19.53,1.09-32.49,1.09h-127.21
			v-47.45c0-15.33-1.64-31.21-5.11-47.27c-3.65-16.79-10.22-32.49-19.71-46.36c-9.67-14.42-22.99-26.28-39.79-35.41
			c-16.79-9.31-37.96-13.87-63.33-13.87c-20.44,0-39.24,3.47-55.85,10.59c-16.79,6.94-31.21,16.97-43.07,29.57
			c-11.68,12.59-20.81,27.56-27.19,44.35c-6.21,16.79-9.31,35.04-9.31,54.39c0,16.06,2.01,30.48,5.84,42.34
			c1.1,3.1,2.19,6.21,3.29,9.13H713.05l-83.23,0.13c-9.49,0-14.97-1.1-17.89-1.82c-2.92-0.91-4.93-2.01-6.21-3.65
			c-1.45-1.64-2.55-4.2-3.1-7.67c-0.91-4.93-1.46-11.13-1.46-18.8v-316.65h-80.67v329.98c0,17.7,2.37,32.85,7.3,45.26
			c5.12,12.78,12.6,23.36,21.9,31.39c9.3,8.03,20.62,13.69,33.4,16.79c11.68,2.92,24.82,4.38,38.69,4.38l91.26,0.05h602.11
			c18.07,0,33.4-0.55,45.81-1.46c13.14-0.91,24.45-2.92,33.94-5.84c10.22-3.29,18.8-8.21,25.91-14.42c2.01-1.82,4.2-3.83,6.21-6.02
			c4.75,4.93,10.59,9.31,17.52,13.32c7.48,4.2,16.61,7.67,27.01,10.4c17.16,4.38,42.16,4.75,63.7,2.92
			c9.49-0.91,18.25-2.55,26.47-5.29c8.76-2.92,16.79-7.3,23.91-12.96c2.37-1.82,4.56-3.83,6.57-6.02
			c4.75,4.93,10.59,9.31,17.34,13.14c7.12,3.83,15.51,6.75,24.82,8.94c9.13,2.19,19.53,3.29,31.03,3.29h104.94v-232.7H1689.67z
			 M1108.38,1826.64h-41.06c-9.31,0-18.07-1.09-25.73-3.47c-7.3-2.37-13.33-5.66-18.44-10.22c-5.11-4.38-8.94-9.86-11.86-16.79
			c-3.1-7.12-4.56-15.88-4.56-26.1c0-8.03,1.28-15.7,3.65-22.81c2.56-6.75,6.02-12.78,10.4-17.89c4.38-5.11,9.49-8.94,15.52-11.86
			c6.02-2.92,12.41-4.38,19.71-4.38c11.68,0,20.81,1.82,27.19,5.47c6.57,3.65,11.5,8.39,15.15,14.05
			c3.83,6.21,6.39,13.51,7.66,21.35c1.64,8.94,2.38,18.07,2.38,27.01V1826.64z"/>
		<path class="st9" d="M397.06,1830.29l-0.02-0.01c-5.29-2.06-9.62-4.8-12.85-8.15c-3.24-3.36-5.6-7.29-7.18-12.04
			c-1.75-5.2-2.64-10.92-2.64-16.98c0-4.41,0.7-8.68,2.09-12.98c1.28-3.94,3.28-7.41,6.11-10.63c2.76-3.14,6.29-5.64,10.8-7.64
			c9.04-4.01,24.76-3.57,37.43-1.33c6.06,1.07,11.78,2.77,17,5.04l20.43,8.88v-79.69l-9.73-3.45c-4.42-1.56-11.01-2.82-20.78-3.97
			c-18.18-2.12-45.84-3.5-69.72,4.84c-12.46,4.35-23.7,11.05-33.44,19.91c-9.73,8.86-17.68,20.02-23.63,33.2
			c-5.95,13.23-8.98,28.72-8.98,46.04c0,12.81,1.92,24.76,5.72,35.49c0.8,2.27,1.69,4.51,2.67,6.74h-32.67v72.47h211.88v-72.47
			H417.8C409.59,1833.56,402.62,1832.46,397.06,1830.29z"/>
	</g>
</g>
<g>
	<path class="st9" d="M1023.99,1894.37c-62.84,0-121.48-24.91-165.11-70.14l-709.44-735.37c-86.18-89.33-86.17-229.28,0.02-318.61
		L443.5,465.48c43.67-45.26,102.25-70.14,165.08-70.14c0.43,0,0.85,0,1.28,0c63.24,0.34,121.98,25.82,165.44,71.75l175.23,183.33
		c14.05,14.7,13.53,38.02-1.18,52.07l-64.65,61.79c-14.7,14.05-38.02,13.53-52.07-1.18L656.88,579.24
		c-12.57-13.31-29.58-20.7-47.9-20.8c-18.23-0.18-35.4,7.1-48.12,20.28L266.82,883.49c-24.93,25.84-24.93,66.31-0.01,92.14
		L976.25,1711c12.62,13.08,29.57,20.28,47.74,20.28c18.18,0,35.14-7.21,47.77-20.29l709.42-735.34c24.93-25.84,24.93-66.32,0-92.16
		l-295.83-306.62c-12.51-12.96-29.75-20.29-47.76-20.29l0,0c-18.03,0-34.88,7.1-47.48,20l-1.4,1.4l-351.66,342.96
		c-14.56,14.2-37.88,13.91-52.08-0.65l-62.44-64.02c-14.2-14.56-13.91-37.88,0.65-52.08l351.03-342.34
		c43.47-44.11,101.42-68.36,163.37-68.36c0.24,0,0.48,0,0.72,0c62.58,0.19,120.98,25.1,164.43,70.14l295.83,306.62
		c86.19,89.33,86.19,229.29,0.01,318.63l-709.42,735.34C1145.49,1869.46,1086.84,1894.37,1023.99,1894.37z"/>
	<circle class="st11" cx="1024" cy="331.58" r="177.95"/>
</g>
</svg>
