<svg xmlns="http://www.w3.org/2000/svg" version="1.2" viewBox="0 0 1888 730"><style>.a{fill:#00528b}</style><path d="M1494.3 729.8c-26.3 0-50.9-10.4-69.2-29.4l-297.3-308.2c-36.1-37.5-36.1-96.1 0-133.6L1251 130.9c18.3-19 42.9-29.4 69.2-29.4h.6c26.5.1 51.1 10.8 69.3 30.1l73.5 76.8c5.8 6.2 5.6 15.9-.5 21.8l-27.1 25.9c-6.2 5.9-16 5.7-21.9-.4l-73.6-77.1c-5.3-5.6-12.4-8.7-20.1-8.7-7.6-.1-14.8 2.9-20.2 8.5L1177 306.1a27.588 27.588 0 0 0 0 38.6l297.3 308.2c5.3 5.5 12.4 8.5 20 8.5 7.7 0 14.8-3 20.1-8.5l297.3-308.2c10.4-10.8 10.4-27.8 0-38.6l-124-128.5c-5.2-5.5-12.5-8.5-20-8.5-7.6 0-14.6 2.9-19.9 8.4l-.6.5-147.4 143.8c-6.1 5.9-15.9 5.8-21.8-.3l-26.2-26.8c-5.9-6.1-5.8-15.9.3-21.8l147.1-143.5c18.2-18.5 42.5-28.7 68.5-28.7h.3c26.2.1 50.7 10.5 68.9 29.4l124 128.5c36.1 37.5 36.1 96.1 0 133.6l-297.3 308.2c-18.3 19-42.9 29.4-69.3 29.4z" class="a"/><path fill="#ff4d0e" d="M1492.8 149.4c-41.3 0-74.6-33.4-74.6-74.6 0-41.3 33.3-74.6 74.6-74.6 41.2 0 74.5 33.3 74.5 74.6 0 41.2-33.3 74.6-74.5 74.6z"/><path d="M484.4 284.6c2.7 2.7 5.9 4.9 9.4 6.4 3.7 1.6 7.7 2.4 11.9 2.4 4 0 8-.8 11.6-2.4 3.6-1.5 6.7-3.7 9.5-6.4 2.7-2.7 4.9-5.9 6.4-9.4 1.6-3.7 2.4-7.7 2.4-11.9 0-4-.8-7.9-2.4-11.6-1.5-3.5-3.7-6.7-6.4-9.4-2.8-2.7-6-4.9-9.5-6.4-7.4-3.2-16.3-3.1-23.5 0-3.5 1.5-6.7 3.7-9.4 6.4-2.8 2.7-4.9 5.9-6.5 9.4-1.6 3.6-2.4 7.6-2.4 11.6 0 4.3.8 8.2 2.4 11.9 1.6 3.5 3.7 6.7 6.5 9.4zm332.1-21.9c2.3 2.3 5 4.2 8.1 5.5 3.1 1.3 6.5 2 10.1 2 3.5 0 6.9-.7 10-2 3-1.3 5.7-3.2 8.1-5.5 2.3-2.3 4.2-5 5.5-8.1 1.4-3.1 2.1-6.5 2.1-9.9 0-3.5-.7-6.8-2.1-10-1.3-3.1-3.2-5.9-5.5-8.2q-3.5-3.5-8.1-5.5c-6.4-2.8-13.9-2.7-20.1 0-3.1 1.3-5.8 3.2-8.1 5.5-2.4 2.3-4.3 5.1-5.6 8.2-1.4 3.2-2 6.5-2 10s.7 6.8 2 9.9c1.3 3 3.2 5.8 5.6 8.1zm28.8 19.3c-2.4 2.4-4.2 5.1-5.5 8.1-1.4 3.1-2.1 6.5-2.1 10 0 3.6.7 7 2.1 10.1 1.3 3 3.1 5.7 5.5 8.1 2.3 2.3 5 4.1 8.1 5.5 3.1 1.3 6.5 2 10.1 2q5.3 0 10-2c3-1.4 5.8-3.2 8.1-5.5 2.3-2.4 4.2-5.1 5.5-8.1 1.4-3.2 2.1-6.6 2.1-10.1s-.7-6.9-2.1-10c-1.3-3-3.2-5.7-5.5-8.1-2.3-2.3-5.1-4.1-8.1-5.5-6.4-2.7-14-2.6-20.1 0-3 1.4-5.8 3.2-8.1 5.5zm-57.7 36.3c2.4 2.3 5.1 4.1 8.1 5.5 3.2 1.3 6.6 2 10.2 2q5.2 0 10-2.1c3-1.3 5.7-3.1 8-5.4q3.6-3.5 5.6-8.1c1.3-3.1 2-6.6 2-10.1s-.7-6.9-2-10c-1.4-3-3.2-5.8-5.6-8.1q-3.5-3.5-8.1-5.5c-6.3-2.7-13.9-2.6-20.1 0-3 1.4-5.7 3.2-8.1 5.5-2.3 2.4-4.2 5.1-5.5 8.1-1.4 3.1-2.1 6.5-2.1 10s.7 6.9 2.1 10.1c1.3 3 3.2 5.7 5.5 8.1z" class="a"/><path fill-rule="evenodd" d="M960.1 344.8v149.7h-67.5c-7.4 0-14.1-.7-19.9-2.1-6-1.5-11.4-3.3-16-5.8-4.3-2.5-8.1-5.3-11.2-8.4q-1.9 2.1-4.2 3.8c-4.6 3.7-9.7 6.5-15.4 8.4-5.2 1.7-10.9 2.8-17 3.4-13.8 1.1-29.9.9-41-1.9-6.6-1.8-12.5-4-17.3-6.7-4.5-2.6-8.2-5.4-11.3-8.6-1.3 1.4-2.7 2.7-4 3.9-4.6 4-10.1 7.1-16.7 9.3-6.1 1.8-13.3 3.1-21.8 3.7-8 .6-17.8 1-29.5 1H280l-58.7-.1c-8.9 0-17.3-.9-24.8-2.8-8.3-2-15.5-5.6-21.5-10.8-6-5.2-10.8-12-14.1-20.2-3.2-8-4.7-17.7-4.7-29.1V219.3h51.9v203.6c0 5 .3 9 .9 12.1.4 2.3 1.1 3.9 2 5 .8 1 2.1 1.7 4 2.3 1.9.5 5.4 1.2 11.5 1.2l53.6-.1h142.6c-.7-1.9-1.4-3.9-2.1-5.9-2.5-7.6-3.7-16.9-3.7-27.2 0-12.5 2-24.2 5.9-35 4.2-10.8 10-20.4 17.5-28.5 7.7-8.1 16.9-14.6 27.7-19 10.7-4.6 22.8-6.9 36-6.9 16.3 0 29.9 3 40.7 9 10.8 5.8 19.4 13.5 25.6 22.7 6.1 9 10.3 19.1 12.7 29.9 2.2 10.3 3.2 20.5 3.2 30.4v30.5h81.9c8.3 0 15.4-.2 20.9-.7 5.5-.5 8.4-1.5 10.1-2.5 1.4-.8 2.3-1.9 2.9-3.5.7-1.9 1.5-5.5 1.5-12.1v-79.2h51.9v64.9c0 6 .4 11.4 1.2 16.1q.9 5.6 3.5 9.1c1.8 2.4 4.5 4.1 8.1 5.6 4.1 1.6 10.2 2.3 18 2.3 5.4 0 10-.2 13.7-.6 2.7-.3 4.8-1 6.2-2 .4-.3 1.5-1 2.5-3.8.6-1.9 1.4-5.7 1.4-12.4v-79.8h51.9v65.5c0 5.9.5 11.2 1.3 15.9.7 3.9 2 7.3 3.6 9.8 1.6 2.2 3.7 4 6.5 5.3 3.1 1.4 7.5 2.1 12.9 2.1h22.1v-98.6h51.8zm-425.7 98.6v-29.3c0-5.8-.5-11.7-1.6-17.4-.8-5.1-2.4-9.8-4.9-13.7-2.3-3.7-5.5-6.7-9.7-9.1-4.1-2.3-10-3.5-17.5-3.5-4.7 0-8.8.9-12.7 2.8-3.9 1.9-7.2 4.4-10 7.6-2.8 3.3-5 7.2-6.7 11.6-1.5 4.5-2.3 9.5-2.3 14.6 0 6.6.9 12.2 2.9 16.8 1.9 4.5 4.4 8 7.6 10.8 3.3 2.9 7.2 5.1 11.9 6.6 4.9 1.5 10.6 2.2 16.5 2.2z" class="a"/><path d="M76.8 445.8v-.1c-3.4-1.3-6.2-3-8.3-5.2-2.1-2.2-3.6-4.7-4.6-7.8-1.1-3.3-1.7-7-1.7-10.9 0-2.8.5-5.6 1.3-8.3.9-2.5 2.2-4.8 4-6.9 1.8-2 4-3.6 6.9-4.9 5.8-2.5 15.9-2.3 24.1-.8 3.9.7 7.6 1.8 10.9 3.2l13.2 5.7v-51.2l-6.3-2.2c-2.8-1-7.1-1.9-13.4-2.6-11.6-1.4-29.4-2.2-44.8 3.1-8 2.8-15.3 7.1-21.5 12.8-6.3 5.7-11.4 12.9-15.2 21.4-3.8 8.5-5.8 18.5-5.8 29.6 0 8.2 1.2 15.9 3.7 22.8q.8 2.2 1.7 4.3H0v46.7h136.3v-46.7H90.1c-5.2.1-9.7-.6-13.3-2.1z" class="a"/></svg>