<svg xmlns="http://www.w3.org/2000/svg" width="19.07" height="19.07" viewBox="0 0 19.07 19.07">
  <g id="loading" transform="translate(0 0)">
    <g id="Group_22706" data-name="Group 22706" transform="translate(8.96 0)">
      <path id="Path_17533" data-name="Path 17533" d="M241.123,3.453a.576.576,0,0,1-.576-.576V.576a.576.576,0,0,1,1.151,0v2.3A.576.576,0,0,1,241.123,3.453Z" transform="translate(-240.547 0)" fill="rgba(255,255,255,0.9)"/>
      <path id="Path_17534" data-name="Path 17534" d="M241.123,422.736a.576.576,0,0,1-.576-.576v-2.3a.576.576,0,1,1,1.151,0v2.3A.576.576,0,0,1,241.123,422.736Z" transform="translate(-240.547 -403.666)" fill="rgba(255,255,255,0.3)"/>
    </g>
    <g id="Group_22707" data-name="Group 22707" transform="translate(4.48 1.2)">
      <path id="Path_17535" data-name="Path 17535" d="M122.286,35.292a.576.576,0,0,1-.786-.211l-1.151-1.994a.576.576,0,0,1,1-.576l1.151,1.994A.576.576,0,0,1,122.286,35.292Z" transform="translate(-120.271 -32.224)" fill="rgba(255,255,255,0.8)"/>
      <path id="Path_17536" data-name="Path 17536" d="M331.928,398.4a.576.576,0,0,1-.786-.211L329.99,396.2a.576.576,0,1,1,1-.576l1.151,1.994A.576.576,0,0,1,331.928,398.4Z" transform="translate(-322.105 -381.809)" fill="rgba(255,255,255,0.2)"/>
    </g>
    <g id="Group_22708" data-name="Group 22708" transform="translate(1.2 4.48)">
      <path id="Path_17537" data-name="Path 17537" d="M35.292,122.286a.576.576,0,0,1-.786.211l-1.994-1.151a.576.576,0,0,1,.576-1l1.994,1.151A.576.576,0,0,1,35.292,122.286Z" transform="translate(-32.224 -120.271)" fill="rgba(255,255,255,0.7)"/>
      <path id="Path_17538" data-name="Path 17538" d="M398.4,331.928a.576.576,0,0,1-.786.211l-1.994-1.151a.576.576,0,0,1,.576-1l1.994,1.151A.576.576,0,0,1,398.4,331.928Z" transform="translate(-381.81 -322.105)" fill="rgba(255,255,255,0.15)"/>
    </g>
    <g id="Group_22709" data-name="Group 22709" transform="translate(0 8.96)">
      <path id="Path_17539" data-name="Path 17539" d="M3.453,241.123a.576.576,0,0,1-.576.576H.576a.576.576,0,0,1,0-1.151h2.3A.576.576,0,0,1,3.453,241.123Z" transform="translate(0 -240.547)" fill="rgba(255,255,255,0.6)"/>
      <path id="Path_17540" data-name="Path 17540" d="M422.736,241.123a.576.576,0,0,1-.576.576h-2.3a.576.576,0,1,1,0-1.151h2.3A.576.576,0,0,1,422.736,241.123Z" transform="translate(-403.666 -240.547)" fill="rgba(255,255,255,0.1)"/>
    </g>
    <g id="Group_22710" data-name="Group 22710" transform="translate(1.2 12.288)">
      <path id="Path_17541" data-name="Path 17541" d="M35.292,330.2a.576.576,0,0,1-.211.786l-1.994,1.151a.576.576,0,0,1-.576-1l1.994-1.151A.576.576,0,0,1,35.292,330.2Z" transform="translate(-32.224 -329.913)" fill="rgba(255,255,255,0.5)"/>
    </g>
    <g id="Group_22711" data-name="Group 22711" transform="translate(4.48 1.2)">
      <path id="Path_17542" data-name="Path 17542" d="M122.286,395.412a.576.576,0,0,1,.211.786l-1.151,1.994a.576.576,0,0,1-1-.576l1.151-1.994A.576.576,0,0,1,122.286,395.412Z" transform="translate(-120.271 -381.81)" fill="rgba(255,255,255,0.4)"/>
      <path id="Path_17543" data-name="Path 17543" d="M331.928,32.3a.576.576,0,0,1,.211.786l-1.151,1.994a.576.576,0,1,1-1-.576l1.151-1.994A.576.576,0,0,1,331.928,32.3Z" transform="translate(-322.105 -32.224)" fill="#fff"/>
    </g>
  </g>
</svg>
