<svg xmlns="http://www.w3.org/2000/svg" data-name="Layer 1" viewBox="0 0 865.76 682.89">
  <path fill="#ebebeb" d="M19.45 574.82h826.87v.41H19.45z"/>
  <path fill="#ebebeb" d="M708.69 601.43h54.77v.41h-54.77z"/>
  <path fill="#ebebeb" d="M552.83 605.93h14.37v.41h-14.37z"/>
  <path fill="#ebebeb" d="M675.3 586.08h31.74v.41H675.3z"/>
  <path fill="#ebebeb" d="M106.2 588.86h71.43v.41H106.2z"/>
  <path fill="#ebebeb" d="M192.36 588.86h10.47v.41h-10.47z"/>
  <path fill="#ebebeb" d="M236.86 595.84h154.92v.41H236.86z"/>
  <path fill="#ebebeb" d="M411.38 501.07H92.06a9.44 9.44 0 0 1-9.42-9.45V42.75a9.44 9.44 0 0 1 9.42-9.36h319.32a9.45 9.45 0 0 1 9.45 9.44v448.79a9.45 9.45 0 0 1-9.45 9.45ZM92.06 33.72a9 9 0 0 0-9 9v448.9a9 9 0 0 0 9 9h319.32a9 9 0 0 0 9-9V42.75a9 9 0 0 0-9-9Z"/>
  <path fill="#ebebeb" d="M769.1 501.07H449.77a9.47 9.47 0 0 1-9.45-9.45V42.75a9.47 9.47 0 0 1 9.45-9.36H769.1a9.44 9.44 0 0 1 9.41 9.36v448.87a9.45 9.45 0 0 1-9.41 9.45ZM449.77 33.72a9 9 0 0 0-9 9v448.9a9 9 0 0 0 9 9H769.1a9 9 0 0 0 9-9V42.75a9 9 0 0 0-9-9Z"/>
  <path fill="#ebebeb" d="M171.64 415.19h209.07v14.75H171.64z"/>
  <path fill="#e0e0e0" d="M289.8 415.19h90.91v14.75H289.8z"/>
  <path fill="#ebebeb" d="M171.64 429.94h30.89v144.88h-30.89z"/>
  <path fill="#e0e0e0" d="m202.53 444.89-30.89-10.52v-4.43h30.89v14.95z"/>
  <path fill="#e0e0e0" d="M349.81 429.94h30.89v144.88h-30.89z"/>
  <path fill="#ebebeb" d="M289.8 429.94h30.89v144.88H289.8z"/>
  <path fill="#e0e0e0" d="m320.68 444.89-30.88-10.52v-4.43h30.88v14.95z"/>
  <path fill="#e0e0e0" d="M231.65 429.94h30.89v144.88h-30.89z"/>
  <path fill="#ebebeb" d="M136.86 86.59h263.49v224.36H136.86z"/>
  <path fill="#e0e0e0" d="M400.35 86.57h2.94v224.36h-2.94z"/>
  <path fill="#f5f5f5" d="M146.8 96.49h243.65v204.52H146.8z"/>
  <path fill="#fff" d="M265.67 270c14.89-49.61 19-122.79 50.67-112.7s-9.8 118.29-9.8 118.29Z"/>
  <path fill="#fff" d="M291.24 272.44c-15.15-71.91-11.33-167.36-58.39-165.18s0 168.3 0 168.3Z"/>
  <path fill="#ebebeb" d="M324.5 264.37h-103a8 8 0 0 0-8.27 7.62c-2.1 47.46 5.67 95.92 20.15 143.2h78.9c14.47-47.37 22.24-95.74 20.14-143.2a7.94 7.94 0 0 0-7.92-7.62Z"/>
  <path fill="#e0e0e0" d="M553.09 111.61h5.8v463.21h-5.8z"/>
  <path fill="#e0e0e0" d="M689.51 111.61h5.8v463.21h-5.8z"/>
  <path fill="#ebebeb" d="M511.93 111.61h5.8v463.21h-5.8z"/>
  <path fill="#ebebeb" d="M648.35 111.61h5.8v463.21h-5.8z"/>
  <path fill="#ebebeb" d="M511.93 108.43h183.38v6.33H511.93z"/>
  <path fill="#ebebeb" d="M511.93 221.86h183.38v6.33H511.93z"/>
  <path fill="#ebebeb" d="M511.93 335.29h183.38v6.33H511.93z"/>
  <path fill="#ebebeb" d="M511.93 448.72h183.38v6.33H511.93z"/>
  <path fill="#ebebeb" d="M511.93 562.15h183.38v6.33H511.93z"/>
  <path fill="#e0e0e0" d="M654.15 108.43h41.16v6.33h-41.16z"/>
  <path fill="#e0e0e0" d="M654.15 221.86h41.16v6.33h-41.16z"/>
  <path fill="#e0e0e0" d="M654.15 335.29h41.16v6.33h-41.16z"/>
  <path fill="#e0e0e0" d="M654.15 448.72h41.16v6.33h-41.16z"/>
  <path fill="#e0e0e0" d="M654.15 562.15h41.16v6.33h-41.16z"/>
  <path fill="#f0f0f0" d="M585.9 147v-8.93h-22V147a10.56 10.56 0 0 1-10.55 10.56 10.57 10.57 0 0 0-10.57 10.55v53.78H607v-53.76a10.57 10.57 0 0 0-10.57-10.55A10.56 10.56 0 0 1 585.9 147Z"/>
  <path fill="#f0f0f0" d="M534.92 298.42h96.61v36.89h-96.61z"/>
  <path fill="#e6e6e6" d="M631.53 298.4h16.82v36.89h-16.82z"/>
  <path fill="#ebebeb" d="M631.53 314.82h16.82v4.07h-16.82z"/>
  <path fill="#f5f5f5" d="M534.92 314.82h96.61v4.07h-96.61z"/>
  <path fill="#f0f0f0" d="M530.19 496.93h75.46v65.22h-75.46z"/>
  <path fill="#e6e6e6" d="M605.65 496.95h13.13v65.22h-13.13z"/>
  <path fill="#ebebeb" d="M605.65 525.95h13.13v7.19h-13.13z"/>
  <path fill="#f5f5f5" d="M530.19 525.95h75.46v7.19h-75.46z"/>
  <path fill="#ebebeb" d="M605.65 518.35h13.13v2.56h-13.13z"/>
  <path fill="#f5f5f5" d="M530.19 518.35h75.46v2.56h-75.46z"/>
  <path fill="#f0f0f0" d="M534.92 382.41h13.66v66.32h-13.66z"/>
  <path fill="#fafafa" d="M534.92 406.04h13.66v19.05h-13.66z"/>
  <path fill="#e6e6e6" d="M548.58 382.43h46.47v66.32h-46.47z"/>
  <path fill="#ebebeb" d="M554.25 373.84h15.43v74.88h-15.43z"/>
  <path fill="#fafafa" d="M554.25 397.64h15.43v11.53h-15.43z"/>
  <path fill="#fafafa" d="M554.25 416.89h15.43v11.53h-15.43z"/>
  <path fill="#e0e0e0" d="M569.7 373.84h52.47v74.88H569.7z"/>
  <path fill="#f0f0f0" d="M578.54 382.41h8.32v66.32h-8.32z"/>
  <path fill="#fafafa" d="M579.97 390.81h5.46v49.51h-5.46z"/>
  <path fill="#e6e6e6" d="M586.85 382.43h28.26v66.32h-28.26z"/>
  <path fill="#ebebeb" d="M599.68 378.92h9.39v69.8h-9.39z"/>
  <path fill="#fafafa" d="M599.68 401.1h9.39v10.75h-9.39z"/>
  <path fill="#fafafa" d="M599.68 419.06h9.39v10.75h-9.39z"/>
  <path fill="#e0e0e0" d="M609.07 378.92h31.92v69.8h-31.92z"/>
  <circle cx="590.25" cy="277.84" r="20.57" fill="#f5f5f5"/>
  <circle cx="613.02" cy="284.11" r="14.26" fill="#ebebeb"/>
  <ellipse cx="432.88" cy="630.78" fill="#f5f5f5" rx="320.64" ry="18.72"/>
  <path fill="#d1d3d4" d="M228 502.54h212.41V612.2a10.7 10.7 0 0 1-10.7 10.7h-191A10.7 10.7 0 0 1 228 612.2V502.54Z"/>
  <path fill="#d1d3d4" d="M228 502.54h150.31l-18.49-23.67c-2-2.59-7.06-4.69-11.25-4.69H213.4c-4.17 0-5.92 2.1-3.89 4.69Z"/>
  <path d="M228 502.54h150.31l-18.49-23.67c-2-2.59-7.06-4.69-11.25-4.69H213.4c-4.17 0-5.92 2.1-3.89 4.69Z" opacity="0.2" style="isolation:isolate"/>
  <path fill="#d1d3d4" d="M440.41 502.54h-150.3l18.49-15.43c2-1.66 7.06-3.06 11.25-3.06H455c4.18 0 5.92 1.37 3.89 3.06Z"/>
  <path fill="#fff" d="M290.11 502h150.3v109.63a10.7 10.7 0 0 1-10.7 10.7h-128.9a10.7 10.7 0 0 1-10.7-10.7V502Z" opacity="0.2" style="isolation:isolate"/>
  <path fill="#fff" d="M246.65 502.54v75.21l5.2-4.1 3.65 4.1 3.18-4.57 3.26 4.57 4.53-3.42 4.99 3.42v-75.21h-24.81z" opacity="0.5" style="isolation:isolate"/>
  <path fill="#d1d3d4" d="m374.12 397 88.12-110.12-117.32-98.5-77.73 89.22-11.57 22.3a6.23 6.23 0 0 0 .42 8.79l.35.29 105.84 88.88a8.77 8.77 0 0 0 11.89-.86Z"/>
  <path fill="#fff" d="m313.7 315.81-12.69 20.43 5.11 1.11 1.74 4.72 3.39.2 1.57 4.05 4.15 1.21 3.19 5.08 12.69-20.42-19.15-16.38z" opacity="0.5" style="isolation:isolate"/>
  <path d="m458.4 283.52-79.02 88.14-112.24-94.23 77.78-89.18 113.48 95.27z" opacity="0.1" style="isolation:isolate"/>
  <path fill="#d1d3d4" d="m458.4 283.68-79.02 88.14 32.71 2.42 77.8-89.19-31.49-1.37z"/>
  <path d="m458.4 283.68-79.02 88.14 32.71 2.42 77.8-89.19-31.49-1.37z" opacity="0.3" style="isolation:isolate"/>
  <path fill="#d1d3d4" d="m313.45 187.02-79.03 88.16 32.72 2.42 77.78-89.19-31.47-1.39z"/>
  <path d="m313.45 187.02-79.03 88.16 32.72 2.42 77.78-89.19-31.47-1.39z" opacity="0.4" style="isolation:isolate"/>
  <path d="m434.02 310.73 24.33-27.14-113.48-95.27-14.52 34.99 103.67 87.42z" opacity="0.1" style="isolation:isolate"/>
  <path d="m267.14 277.6 77.78-89.19-14.52 34.99-54.77 61.32-8.49-7.12z" opacity="0.2" style="isolation:isolate"/>
  <path fill="#f9b499" d="M522.58 124.81c.73 8.76 2.89 24.8 8.07 28.51 0 0-1.22 10.53-19.84 13.23-20.41 3-11.25-8.7-11.25-8.7 10.73-4.3 9.23-12.52 6.15-20l7.87-9c3.03-3.37 8.6-8.53 9-4.04Z"/>
  <path fill="currentColor" d="M537.32 157.6c1.65-1.51-1.66-7.52-3.69-8.37-5.33-2.23-27.11 0-35.29 7a9 9 0 0 0-.65 7.76Z"/>
  <path d="M537.32 157.6c1.65-1.51-1.66-7.52-3.69-8.37-5.33-2.23-27.11 0-35.29 7a9 9 0 0 0-.65 7.76Z" opacity="0.2"/>
  <path fill="#f9b499" d="M529.1 616.7h-13.81l-1.38-31.95h13.81l1.38 31.95z"/>
  <path fill="#f9b499" d="m626.09 594.88-12.72 4.38-13.2-30.11 12.72-4.38 13.2 30.11z"/>
  <path fill="currentColor" d="m610.34 596.11 14.89-4.55a1.2 1.2 0 0 1 1.4.56l6.21 10.88a2 2 0 0 1-.79 2.77 1.57 1.57 0 0 1-.42.18c-5.21 1.5-7.81 2-14.32 4-4 1.22-14.14 5.06-19.85 6.2s-7.54-4.32-5.32-5.29c9.92-4.39 14-9.36 16.35-13.23a3.38 3.38 0 0 1 1.85-1.52Z"/>
  <path fill="currentColor" d="M515.39 615.09h15.06a1.24 1.24 0 0 1 1.18.94l2.73 12.27a2 2 0 0 1-1.51 2.4 2 2 0 0 1-.48 0c-5.44-.08-13.23-.41-20.13-.41-8 0-11.34.44-20.72.44-5.65 0-7.22-5.72-4.86-6.25 10.8-2.36 16.08-2.61 25.4-8.36a6.48 6.48 0 0 1 3.33-1.03Z"/>
  <path fill="#f9b499" d="M555.49 162.11c4 3.69 7.49 7.38 11.1 11.23s6.94 7.84 10.18 12.09a115 115 0 0 1 9.2 13.63 59.81 59.81 0 0 1 3.87 8.17c.28.78.56 1.52.79 2.36a26.15 26.15 0 0 1 .68 2.6l.28 1.37.2 1.52a15.54 15.54 0 0 1 0 4.2 17.56 17.56 0 0 1-2.84 7.35 24.46 24.46 0 0 1-3.81 4.38 44.3 44.3 0 0 1-7.54 5.51 98.56 98.56 0 0 1-14.88 6.93 179.23 179.23 0 0 1-30.07 8.26l-2.89-9.92c9-3.88 18.07-8.08 26.46-12.57A100.57 100.57 0 0 0 568 222a26.64 26.64 0 0 0 4.28-3.8 5.9 5.9 0 0 0 1-1.41c.14-.28 0-.25-.16.35-.12 1.11-.1.25-.36-.35-.09-.28-.24-.66-.38-1s-.34-.78-.52-1.18a51.26 51.26 0 0 0-3-5.24 125.33 125.33 0 0 0-8.27-10.93c-3-3.61-6.25-7.2-9.54-10.72s-6.75-7.08-9.92-10.35Z"/>
  <path fill="#ffc3bd" d="m533.55 240.22-13 3.94 8.37 13.76s7.69-3.18 9.39-9.71Z"/>
  <path fill="#ffc3bd" d="m515.27 249.03 5.13 11.35 8.42-2.45-8.37-13.77-5.18 4.87z"/>
  <path fill="currentColor" d="M525 165.85c-1.24 13.23 26.74 33.71 26.74 33.71l26.94-18.44A56.69 56.69 0 0 0 558.83 160c-15.45-9.86-32.28-10.59-33.83 5.85Z"/>
  <path fill="currentColor" d="M479.19 164.79s-12.09 18.56 16.62 118.08l73-10.78c-1-10.09-13.23-54.1-13.64-102.2a17.21 17.21 0 0 0-17.32-17.08h-.77c-2.12.11-4.3.26-6.47.48a272.54 272.54 0 0 0-31 4.58 139.32 139.32 0 0 0-20.42 6.92Z"/>
  <path d="m477.4 196.78.25-.28 17.16 1.5c2.62 11.08-6.94 26.19-12 33.2a325.37 325.37 0 0 1-5.41-34.42Z" opacity="0.2" style="isolation:isolate"/>
  <path fill="#00141f" d="M521.7 279.05s11.85 100.8 20.44 140.29c9.41 43.26 55.86 161.2 55.86 161.2l23.16-8s-29.77-88.81-37.67-149.28c-6.07-46.44-14.72-151.17-14.72-151.17Z"/>
  <path fill="#00141f" d="M592.05 573.14c-.11 0 4.75 9.92 4.75 9.92l27-8.78-3.18-8.07Z"/>
  <path d="M528.24 330.76c3.7 28 8.45 61.19 12.61 82.38 6.15-32.47 7.58-73.46-12.61-82.38Z" opacity="0.3" style="isolation:isolate"/>
  <path fill="#00141f" d="M495.81 282.87s-9.83 94.69-8.27 136.77c1.55 43.75 22 178.4 22 178.4h23.36s-4.3-132.1-3.31-175.06c1.14-46.85 18.71-147.87 18.71-147.87Z"/>
  <path fill="#00141f" d="M505 588.73c-.1 0 1.32 9.69 1.32 9.69h28.43l.77-8.65Z"/>
  <path fill="#f9b499" d="M491.28 188.05c-2.58 4.1-5.2 7.78-7.91 11.57s-5.56 7.44-8.45 11.08a209.94 209.94 0 0 1-19.13 20.87c-1.86 1.66-3.56 3.31-5.56 4.81l-1.46 1.18-.72.58c-.27.21-.38.33-.93.72a20.8 20.8 0 0 1-5.34 2.75 31 31 0 0 1-9.15 1.65 50.59 50.59 0 0 1-7.88-.34 99.59 99.59 0 0 1-27.7-7.84l2.86-9.92a182.55 182.55 0 0 0 25.5 1.22 50.54 50.54 0 0 0 5.62-.61 13.6 13.6 0 0 0 4-1.26c.4-.21.62-.43.57-.48s.21-.21.36-.36l.56-.52 1.11-1c1.49-1.32 2.9-2.92 4.35-4.38 2.86-3.08 5.71-6.23 8.4-9.59s5.43-6.73 8.07-10.21 5.21-7 7.79-10.51 5.09-7.23 7.48-10.65Z"/>
  <path fill="currentColor" d="M500.88 183.66c5.56 18.19-26.7 38.35-26.7 38.35l-21-26.7A116.67 116.67 0 0 1 470.57 171c14.27-15.52 26.08-1.18 30.31 12.66Z"/>
  <path fill="#f9b499" d="m404.77 225.77-17-3.11 1.79 14.68s8.83 5 15.23-2.79Z"/>
  <path fill="#f9b499" d="m381.24 225.97 3.67 10.6 4.63.77-1.79-14.68-6.51 3.31z"/>
  <path fill="#f7a48b" d="M508 146.33a11.13 11.13 0 0 0-.29-2.31s7.14-.78 10.53-4.66c-.05 0-1.06 4.98-10.24 6.97Z"/>
  <path fill="#f9b499" d="M520.78 105c3 13.34 5.49 21 .84 29.76-7 13.05-24.94 11.8-31.9-.38-6.27-11-10.2-30.94 1.11-39.93A18.69 18.69 0 0 1 520.78 105Z"/>
  <path fill="#00141f" d="m494 118.11-5.08 3.11.48-17.37a15 15 0 0 1-9.19-2.66c1.83-1.75 30.41-11.76 39.32-10 .93-.38 2.06-2.1 2.06-2.1s.34 2.17-1.16 3c1.09-.21 3.82.32 4.58 1.92a5.94 5.94 0 0 0-3.79.22s9.92 1.5 6.4 15.26c-4 15.16-2.64 23.88-2.64 23.88s-7.38 5.7-13.8 4.65c-6.87-7.57-16.76-16.64-17.18-19.91Z"/>
  <path fill="#00141f" d="M484.25 99.82c-8.06 0-10.95-3.94-13-7.25 5.79-.61 17.85-4.33 26.79-5s18.76 1 15.8 5-29.59 7.25-29.59 7.25Z"/>
  <path fill="#00141f" d="M486 96.23c-6.62-.93-13.07-7.16-8.11-13.13 1.84 4.38 14.23 3.87 23 2 11.58-2.41 19.6 1.49 15.5 9.38-2.21 4.35-30.39 1.75-30.39 1.75Z"/>
  <path fill="#f9b499" d="M501.12 114.16a15.61 15.61 0 0 1-.43 9.92c-1.66 4.15-5.33 3.31-7.25-.28-1.65-3.31-2.91-9.31-.1-12.31s6.58-1.25 7.78 2.67Z"/>
</svg>